<?xml version="1.0" standalone="no"?><svg xmlns="http://www.w3.org/2000/svg" viewBox="0 0 1440 320"><path fill="#ff5500" fill-opacity="0.2" d="M0,0L6.2,32C12.3,64,25,128,37,176C49.2,224,62,256,74,250.7C86.2,245,98,203,111,170.7C123.1,139,135,117,148,112C160,107,172,117,185,133.3C196.9,149,209,171,222,160C233.8,149,246,107,258,90.7C270.8,75,283,85,295,101.3C307.7,117,320,139,332,144C344.6,149,357,139,369,117.3C381.5,96,394,64,406,69.3C418.5,75,431,117,443,165.3C455.4,213,468,267,480,282.7C492.3,299,505,277,517,229.3C529.2,181,542,107,554,101.3C566.2,96,578,160,591,192C603.1,224,615,224,628,202.7C640,181,652,139,665,128C676.9,117,689,139,702,133.3C713.8,128,726,96,738,112C750.8,128,763,192,775,192C787.7,192,800,128,812,112C824.6,96,837,128,849,160C861.5,192,874,224,886,224C898.5,224,911,192,923,160C935.4,128,948,96,960,69.3C972.3,43,985,21,997,16C1009.2,11,1022,21,1034,69.3C1046.2,117,1058,203,1071,202.7C1083.1,203,1095,117,1108,96C1120,75,1132,117,1145,117.3C1156.9,117,1169,75,1182,74.7C1193.8,75,1206,117,1218,128C1230.8,139,1243,117,1255,133.3C1267.7,149,1280,203,1292,202.7C1304.6,203,1317,149,1329,144C1341.5,139,1354,181,1366,197.3C1378.5,213,1391,203,1403,186.7C1415.4,171,1428,149,1434,138.7L1440,128L1440,0L1433.8,0C1427.7,0,1415,0,1403,0C1390.8,0,1378,0,1366,0C1353.8,0,1342,0,1329,0C1316.9,0,1305,0,1292,0C1280,0,1268,0,1255,0C1243.1,0,1231,0,1218,0C1206.2,0,1194,0,1182,0C1169.2,0,1157,0,1145,0C1132.3,0,1120,0,1108,0C1095.4,0,1083,0,1071,0C1058.5,0,1046,0,1034,0C1021.5,0,1009,0,997,0C984.6,0,972,0,960,0C947.7,0,935,0,923,0C910.8,0,898,0,886,0C873.8,0,862,0,849,0C836.9,0,825,0,812,0C800,0,788,0,775,0C763.1,0,751,0,738,0C726.2,0,714,0,702,0C689.2,0,677,0,665,0C652.3,0,640,0,628,0C615.4,0,603,0,591,0C578.5,0,566,0,554,0C541.5,0,529,0,517,0C504.6,0,492,0,480,0C467.7,0,455,0,443,0C430.8,0,418,0,406,0C393.8,0,382,0,369,0C356.9,0,345,0,332,0C320,0,308,0,295,0C283.1,0,271,0,258,0C246.2,0,234,0,222,0C209.2,0,197,0,185,0C172.3,0,160,0,148,0C135.4,0,123,0,111,0C98.5,0,86,0,74,0C61.5,0,49,0,37,0C24.6,0,12,0,6,0L0,0Z"></path></svg>